<svg version="1.2" xmlns="http://www.w3.org/2000/svg" viewBox="0 0 277 277" width="512" height="512">
	<title>elmenusLogo-svg</title>
	<defs>
		<linearGradient id="g1" x2="1" gradientUnits="userSpaceOnUse" gradientTransform="matrix(274.414,112.104,-170.387,417.082,56.081,121.822)">
			<stop offset="0" stop-color="#ffffff"/>
			<stop offset="1" stop-color="#f97316"/>
		</linearGradient>
	</defs>
	<style>
		.s0 { fill: #f97316 } 
		.s1 { fill: #ffffff } 
		.s2 { fill: url(#g1) } 
	</style>
	<path id="Layer" class="s0" d="m277 210c0 37-30 67-67 67h-143c-37 0-67-30-67-67v-143c0-37 30-67 67-67h143c37 0 67 30 67 67z"/>
	<path id="Layer" class="s1" d="m216.9 216.2c-0.3 0-0.7 0-1.1-0.2l-77.1-25.6v-128.6c0.7 0 1.5 0.1 2.1 0.3l77.5 25.6c1.5 0.6 2.6 2.1 2.4 3.8v120.7c0.2 2.3-1.7 4-3.8 4z"/>
	<path id="Layer" class="s2" d="m138.5 190.6l-77.1 25.6c-2.1 0.7-4.2-0.4-4.9-2.5 0-0.2-0.2-0.4-0.2-0.6 0-0.2 0-0.2 0-0.3 0-0.2 0-0.2 0-0.4v-120.9c0-1.3 0.7-2.6 1.9-3.4 0.1-0.2 0.3-0.2 0.5-0.4l77.7-25.6c0.2 0 0.4 0 0.4-0.2h0.2c0.5 0 0.9-0.1 1.5-0.1z"/>
</svg>